# Vectary OBJ Export units=mm
mtllib wish-ad.mtl
o 000_Image_Plane
g Image_Plane
usemtl Material_f76df6c2-388b-41bd-8af0-fafdb8477838
v -60.526 -19.860 0.200
v -60.526 0.000 0.200
v -60.526 19.860 0.200
v 0.000 -19.860 0.200
v 0.000 0.000 0.200
v 0.000 19.860 0.200
v 60.526 -19.860 0.200
v 60.526 0.000 0.200
v 60.526 19.860 0.200
vt 0.00000 0.00000
vt 0.00000 0.50000
vt 0.00000 1.00000
vt 0.50000 0.00000
vt 0.50000 0.50000
vt 0.50000 1.00000
vt 1.00000 0.00000
vt 1.00000 0.50000
vt 1.00000 1.00000
vn 0.00000 0.00000 1.00000
vn 0.00000 0.00000 1.00000
vn 0.00000 0.00000 1.00000
vn 0.00000 0.00000 1.00000
vn 0.00000 0.00000 1.00000
vn 0.00000 0.00000 1.00000
vn 0.00000 0.00000 1.00000
vn 0.00000 0.00000 1.00000
vn 0.00000 0.00000 1.00000
vn 0.00000 0.00000 1.00000
vn 0.00000 0.00000 1.00000
vn 0.00000 0.00000 1.00000
vn 0.00000 0.00000 1.00000
vn 0.00000 0.00000 1.00000
vn 0.00000 0.00000 1.00000
vn 0.00000 0.00000 1.00000
f 2/2/2 1/1/3 4/4/4 5/5/1 
f 3/3/6 2/2/7 5/5/8 6/6/5 
f 5/5/10 4/4/11 7/7/12 8/8/9 
f 6/6/14 5/5/15 8/8/16 9/9/13 
o 001_Object
g Object
usemtl Object material_f31f186e-3135-4933-8bd3-bb0be653c295
